<svg width="24" height="20" viewBox="0 0 24 20" fill="none" xmlns="http://www.w3.org/2000/svg"><g id="stat_sys_signal_single_ios27"><path id="signal_4" d="M19.195 15.945C19.445 16.095 19.725 16.165 20.025 16.165C20.325 16.165 20.595 16.095 20.845 15.945C21.095 15.795 21.295 15.595 21.445 15.345C21.595 15.095 21.665 14.825 21.665 14.525V5.47496C21.665 5.17496 21.595 4.90496 21.445 4.65496C21.295 4.40496 21.095 4.20496 20.845 4.05496C20.595 3.90496 20.325 3.83496 20.025 3.83496C19.725 3.83496 19.445 3.90496 19.195 4.05496C18.945 4.20496 18.745 4.40496 18.595 4.65496C18.445 4.90496 18.375 5.17496 18.375 5.47496V14.525C18.375 14.825 18.445 15.095 18.595 15.345C18.745 15.595 18.945 15.795 19.195 15.945Z" fill="white"/><path id="signal_3" d="M13.8552 15.945C14.1052 16.095 14.3852 16.155 14.6852 16.155C14.9852 16.155 15.2552 16.085 15.5052 15.935C15.7552 15.785 15.9552 15.585 16.1052 15.335C16.2552 15.085 16.3252 14.815 16.3252 14.515V8.265C16.3252 7.965 16.2552 7.695 16.1052 7.445C15.9552 7.195 15.7552 6.995 15.5052 6.845C15.2552 6.695 14.9852 6.625 14.6852 6.625C14.3852 6.625 14.1052 6.695 13.8552 6.845C13.6052 6.995 13.4052 7.195 13.2552 7.445C13.1052 7.695 13.0352 7.965 13.0352 8.265V14.515C13.0352 14.815 13.1052 15.095 13.2552 15.345C13.4052 15.605 13.6052 15.805 13.8552 15.945Z" fill="white"/><path id="signal_2" d="M9.33506 16.1649C9.03506 16.1649 8.75506 16.0949 8.50506 15.9449C8.25506 15.7949 8.05506 15.5949 7.90506 15.3449C7.75506 15.0949 7.68506 14.8149 7.68506 14.5249V10.8349C7.68506 10.5349 7.75506 10.2649 7.90506 10.0149C8.05506 9.76495 8.25506 9.56495 8.50506 9.41495C8.75506 9.26495 9.03506 9.19495 9.33506 9.19495C9.63506 9.19495 9.90506 9.26495 10.1551 9.41495C10.4051 9.56495 10.6051 9.76495 10.7551 10.0149C10.9051 10.2649 10.9751 10.5349 10.9751 10.8349V14.5249C10.9751 14.8249 10.9051 15.0949 10.7551 15.3449C10.6051 15.5949 10.4051 15.7949 10.1551 15.9449C9.90506 16.0949 9.63506 16.1649 9.33506 16.1649Z" fill="white"/><path id="signal_1" d="M3.15496 15.9449C3.40496 16.0949 3.68496 16.1649 3.98496 16.1649C4.28496 16.1649 4.55496 16.0949 4.80496 15.9449C5.05496 15.7949 5.25496 15.5949 5.40496 15.3449C5.55496 15.0949 5.62496 14.8249 5.62496 14.5249V13.0549C5.62496 12.7549 5.55496 12.4849 5.40496 12.2349C5.25496 11.9849 5.05496 11.7849 4.80496 11.6349C4.55496 11.4849 4.28496 11.4149 3.98496 11.4149C3.68496 11.4149 3.40496 11.4849 3.15496 11.6349C2.90496 11.7849 2.70496 11.9849 2.55496 12.2349C2.40496 12.4849 2.33496 12.7549 2.33496 13.0549V14.5249C2.33496 14.8249 2.40496 15.0949 2.55496 15.3449C2.70496 15.5949 2.90496 15.7949 3.15496 15.9449Z" fill="white"/></g></svg>