<svg width="20" height="20" viewBox="0 0 20 20" fill="none" xmlns="http://www.w3.org/2000/svg"><g id="stat_sys_signal_stacked_miui"><path id="signal_2_4" d="M14.918 14.3764C14.918 14.0073 14.918 13.8227 14.9898 13.6817C15.053 13.5577 15.1538 13.4569 15.2778 13.3937C15.4188 13.3219 15.6033 13.3219 15.9724 13.3219H16.3435C16.7126 13.3219 16.8971 13.3219 17.0381 13.3937C17.1621 13.4569 17.263 13.5577 17.3261 13.6817C17.398 13.8227 17.398 14.0073 17.398 14.3764V14.9722C17.398 15.3413 17.398 15.5258 17.3261 15.6668C17.263 15.7908 17.1621 15.8916 17.0381 15.9548C16.8971 16.0267 16.7126 16.0267 16.3435 16.0267H15.9724C15.6033 16.0267 15.4188 16.0267 15.2778 15.9548C15.1538 15.8916 15.053 15.7908 14.9898 15.6668C14.918 15.5258 14.918 15.3413 14.918 14.9722V14.3764Z" fill="white"/><path id="signal_2_3" d="M10.6665 14.3764C10.6665 14.0073 10.6665 13.8227 10.7383 13.6817C10.8015 13.5577 10.9023 13.4569 11.0264 13.3937C11.1673 13.3219 11.3519 13.3219 11.721 13.3219H12.092C12.4611 13.3219 12.6457 13.3219 12.7867 13.3937C12.9107 13.4569 13.0115 13.5577 13.0747 13.6817C13.1465 13.8227 13.1465 14.0073 13.1465 14.3764V14.9722C13.1465 15.3413 13.1465 15.5258 13.0747 15.6668C13.0115 15.7908 12.9107 15.8916 12.7867 15.9548C12.6457 16.0267 12.4611 16.0267 12.092 16.0267H11.721C11.3519 16.0267 11.1673 16.0267 11.0264 15.9548C10.9023 15.8916 10.8015 15.7908 10.7383 15.6668C10.6665 15.5258 10.6665 15.3413 10.6665 14.9722V14.3764Z" fill="white"/><path id="signal_2_2" d="M6.41162 14.3764C6.41162 14.0073 6.41162 13.8227 6.48345 13.6817C6.54664 13.5577 6.64746 13.4569 6.77147 13.3937C6.91245 13.3219 7.097 13.3219 7.4661 13.3219H7.83714C8.20625 13.3219 8.3908 13.3219 8.53177 13.3937C8.65578 13.4569 8.7566 13.5577 8.81979 13.6817C8.89162 13.8227 8.89162 14.0073 8.89162 14.3764V14.9722C8.89162 15.3413 8.89162 15.5258 8.81979 15.6668C8.7566 15.7908 8.65578 15.8916 8.53177 15.9548C8.3908 16.0267 8.20625 16.0267 7.83715 16.0267H7.4661C7.097 16.0267 6.91245 16.0267 6.77147 15.9548C6.64746 15.8916 6.54664 15.7908 6.48345 15.6668C6.41162 15.5258 6.41162 15.3413 6.41162 14.9722V14.3764Z" fill="white"/><path id="signal_2_1" d="M2.16016 14.3764C2.16016 14.0073 2.16016 13.8227 2.23199 13.6817C2.29517 13.5577 2.39599 13.4569 2.52 13.3937C2.66098 13.3219 2.84553 13.3219 3.21463 13.3219H3.58568C3.95478 13.3219 4.13933 13.3219 4.28031 13.3937C4.40432 13.4569 4.50514 13.5577 4.56832 13.6817C4.64016 13.8227 4.64016 14.0073 4.64016 14.3764V14.9722C4.64016 15.3413 4.64016 15.5258 4.56832 15.6668C4.50514 15.7908 4.40432 15.8916 4.28031 15.9548C4.13933 16.0267 3.95478 16.0267 3.58568 16.0267H3.21463C2.84553 16.0267 2.66098 16.0267 2.52 15.9548C2.39599 15.8916 2.29517 15.7908 2.23199 15.6668C2.16016 15.5258 2.16016 15.3413 2.16016 14.9722V14.3764Z" fill="white"/><path id="signal_1_4" d="M14.918 5.02774C14.918 4.65864 14.918 4.47409 14.9898 4.33311C15.053 4.20911 15.1538 4.10828 15.2778 4.0451C15.4188 3.97327 15.6033 3.97327 15.9724 3.97327H16.3435C16.7126 3.97327 16.8971 3.97327 17.0381 4.0451C17.1621 4.10828 17.263 4.20911 17.3261 4.33311C17.398 4.47409 17.398 4.65864 17.398 5.02774V10.915C17.398 11.2841 17.398 11.4686 17.3261 11.6096C17.263 11.7336 17.1621 11.8344 17.0381 11.8976C16.8971 11.9694 16.7126 11.9694 16.3435 11.9694H15.9724C15.6033 11.9694 15.4188 11.9694 15.2778 11.8976C15.1538 11.8344 15.053 11.7336 14.9898 11.6096C14.918 11.4686 14.918 11.2841 14.918 10.915V5.02774Z" fill="white"/><path id="signal_1_3" d="M10.6665 6.81461C10.6665 6.44551 10.6665 6.26096 10.7383 6.11998C10.8015 5.99597 10.9023 5.89515 11.0264 5.83196C11.1673 5.76013 11.3519 5.76013 11.721 5.76013H12.092C12.4611 5.76013 12.6457 5.76013 12.7867 5.83196C12.9107 5.89515 13.0115 5.99597 13.0747 6.11998C13.1465 6.26096 13.1465 6.44551 13.1465 6.81461V10.9151C13.1465 11.2842 13.1465 11.4687 13.0747 11.6097C13.0115 11.7337 12.9107 11.8345 12.7867 11.8977C12.6457 11.9695 12.4611 11.9695 12.092 11.9695H11.721C11.3519 11.9695 11.1673 11.9695 11.0264 11.8977C10.9023 11.8345 10.8015 11.7337 10.7383 11.6097C10.6665 11.4687 10.6665 11.2842 10.6665 10.9151V6.81461Z" fill="white"/><path id="signal_1_2" d="M6.41162 8.86917C6.41162 8.50007 6.41162 8.31552 6.48345 8.17454C6.54664 8.05054 6.64746 7.94971 6.77147 7.88653C6.91245 7.8147 7.097 7.8147 7.4661 7.8147H7.83714C8.20625 7.8147 8.3908 7.8147 8.53177 7.88653C8.65578 7.94971 8.7566 8.05054 8.81979 8.17454C8.89162 8.31552 8.89162 8.50007 8.89162 8.86917V10.915C8.89162 11.2841 8.89162 11.4686 8.81979 11.6096C8.7566 11.7336 8.65578 11.8345 8.53177 11.8976C8.3908 11.9695 8.20625 11.9695 7.83715 11.9695H7.4661C7.097 11.9695 6.91245 11.9695 6.77147 11.8976C6.64746 11.8345 6.54664 11.7336 6.48345 11.6096C6.41162 11.4686 6.41162 11.2841 6.41162 10.915V8.86917Z" fill="white"/><path id="signal_1_1" d="M2.16016 10.345C2.16016 9.96871 2.16016 9.78057 2.23199 9.63686C2.29517 9.51044 2.39599 9.40766 2.52 9.34325C2.66098 9.27002 2.84553 9.27002 3.21463 9.27002H3.58568C3.95478 9.27002 4.13933 9.27002 4.28031 9.34325C4.40432 9.40766 4.50514 9.51044 4.56832 9.63686C4.64016 9.78057 4.64016 9.96871 4.64016 10.345V10.8951C4.64016 11.2713 4.64016 11.4595 4.56832 11.6032C4.50514 11.7296 4.40432 11.8324 4.28031 11.8968C4.13933 11.97 3.95478 11.97 3.58568 11.97H3.21463C2.84553 11.97 2.66098 11.97 2.52 11.8968C2.39599 11.8324 2.29517 11.7296 2.23199 11.6032C2.16016 11.4595 2.16016 11.2713 2.16016 10.8951V10.345Z" fill="white"/><rect id="type_container" y="3.5" width="2" height="2" fill="white"/></g></svg>