<svg width="24" height="20" viewBox="0 0 24 20" fill="none" xmlns="http://www.w3.org/2000/svg"><g id="stat_sys_signal_stacked_ios27"><path id="signal_2_4" d="M18.3735 14.7218C18.3735 13.8133 19.11 13.0768 20.0185 13.0768C20.927 13.0768 21.6635 13.8133 21.6635 14.7218V15.0508C21.6635 15.9593 20.927 16.6958 20.0185 16.6958C19.11 16.6958 18.3735 15.9593 18.3735 15.0508V14.7218Z" fill="white"/><path id="signal_2_3" d="M13.0332 14.7218C13.0332 13.8133 13.7697 13.0768 14.6782 13.0768C15.5867 13.0768 16.3232 13.8133 16.3232 14.7218V15.0508C16.3232 15.9593 15.5867 16.6958 14.6782 16.6958C13.7697 16.6958 13.0332 15.9593 13.0332 15.0508V14.7218Z" fill="white"/><path id="signal_2_2" d="M7.68018 14.7218C7.68018 13.8133 8.41667 13.0768 9.32518 13.0768C10.2337 13.0768 10.9702 13.8133 10.9702 14.7218V15.0508C10.9702 15.9593 10.2337 16.6958 9.32518 16.6958C8.41667 16.6958 7.68018 15.9593 7.68018 15.0508V14.7218Z" fill="white"/><path id="signal_2_1" d="M2.33008 14.7218C2.33008 13.8133 3.06657 13.0768 3.97508 13.0768C4.88359 13.0768 5.62008 13.8133 5.62008 14.7218V15.0508C5.62008 15.9593 4.88359 16.6958 3.97508 16.6958C3.06657 16.6958 2.33008 15.9593 2.33008 15.0508V14.7218Z" fill="white"/><path id="signal_1_4" d="M18.3735 4.69505C18.3735 3.78654 19.11 3.05005 20.0185 3.05005C20.927 3.05005 21.6635 3.78654 21.6635 4.69505V9.69506C21.6635 10.6036 20.927 11.3401 20.0185 11.3401C19.11 11.3401 18.3735 10.6036 18.3735 9.69506V4.69505Z" fill="white"/><path id="signal_1_3" d="M13.0332 6.37169C13.0332 5.46318 13.7697 4.72668 14.6782 4.72668C15.5867 4.72668 16.3232 5.46318 16.3232 6.37169V9.69503C16.3232 10.6035 15.5867 11.34 14.6782 11.34C13.7697 11.34 13.0332 10.6035 13.0332 9.69503V6.37169Z" fill="white"/><path id="signal_1_2" d="M7.68018 8.04845C7.68018 7.13994 8.41667 6.40344 9.32518 6.40344C10.2337 6.40344 10.9702 7.13994 10.9702 8.04845V9.69345C10.9702 10.602 10.2337 11.3385 9.32518 11.3385C8.41667 11.3385 7.68018 10.602 7.68018 9.69345V8.04845Z" fill="white"/><path id="signal_1_1" d="M2.33008 9.03844C2.33008 8.12993 3.06657 7.39343 3.97508 7.39343C4.88359 7.39343 5.62008 8.12993 5.62008 9.03844V9.69644C5.62008 10.6049 4.88359 11.3414 3.97508 11.3414C3.06657 11.3414 2.33008 10.6049 2.33008 9.69644V9.03844Z" fill="white"/></g></svg>