<svg width="20" height="20" viewBox="0 0 20 20" fill="none" xmlns="http://www.w3.org/2000/svg"><g id="stat_sys_signal_single_miui"><path id="signal_4" d="M14.918 5.02774C14.918 4.65864 14.918 4.47409 14.9898 4.33311C15.053 4.20911 15.1538 4.10828 15.2778 4.0451C15.4188 3.97327 15.6033 3.97327 15.9724 3.97327H16.3435C16.7126 3.97327 16.8971 3.97327 17.0381 4.0451C17.1621 4.10828 17.263 4.20911 17.3261 4.33311C17.398 4.47409 17.398 4.65864 17.398 5.02774V14.9721C17.398 15.3412 17.398 15.5258 17.3261 15.6668C17.263 15.7908 17.1621 15.8916 17.0381 15.9548C16.8971 16.0266 16.7126 16.0266 16.3435 16.0266H15.9724C15.6033 16.0266 15.4188 16.0266 15.2778 15.9548C15.1538 15.8916 15.053 15.7908 14.9898 15.6668C14.918 15.5258 14.918 15.3412 14.918 14.9721V5.02774Z" fill="white"/><path id="signal_3" d="M10.6665 7.7211C10.6665 7.352 10.6665 7.16745 10.7383 7.02647C10.8015 6.90246 10.9023 6.80164 11.0264 6.73846C11.1673 6.66663 11.3519 6.66663 11.721 6.66663H12.092C12.4611 6.66663 12.6457 6.66663 12.7867 6.73846C12.9107 6.80164 13.0115 6.90246 13.0747 7.02647C13.1465 7.16745 13.1465 7.352 13.1465 7.7211V14.9721C13.1465 15.3413 13.1465 15.5258 13.0747 15.6668C13.0115 15.7908 12.9107 15.8916 12.7867 15.9548C12.6457 16.0266 12.4611 16.0266 12.092 16.0266H11.721C11.3519 16.0266 11.1673 16.0266 11.0264 15.9548C10.9023 15.8916 10.8015 15.7908 10.7383 15.6668C10.6665 15.5258 10.6665 15.3413 10.6665 14.9721V7.7211Z" fill="white"/><path id="signal_2" d="M6.41162 10.8183C6.41162 10.4492 6.41162 10.2646 6.48345 10.1236C6.54664 9.99963 6.64746 9.89881 6.77147 9.83563C6.91245 9.76379 7.097 9.76379 7.4661 9.76379H7.83714C8.20625 9.76379 8.3908 9.76379 8.53177 9.83563C8.65578 9.89881 8.7566 9.99963 8.81979 10.1236C8.89162 10.2646 8.89162 10.4492 8.89162 10.8183V14.9722C8.89162 15.3413 8.89162 15.5258 8.81979 15.6668C8.7566 15.7908 8.65578 15.8916 8.53177 15.9548C8.3908 16.0267 8.20625 16.0267 7.83715 16.0267H7.4661C7.097 16.0267 6.91245 16.0267 6.77147 15.9548C6.64746 15.8916 6.54664 15.7908 6.48345 15.6668C6.41162 15.5258 6.41162 15.3413 6.41162 14.9722V10.8183Z" fill="white"/><path id="signal_1" d="M2.16016 13.085C2.16016 12.7159 2.16016 12.5313 2.23199 12.3904C2.29517 12.2664 2.39599 12.1655 2.52 12.1023C2.66098 12.0305 2.84553 12.0305 3.21463 12.0305H3.58568C3.95478 12.0305 4.13933 12.0305 4.28031 12.1023C4.40432 12.1655 4.50514 12.2664 4.56832 12.3904C4.64016 12.5313 4.64016 12.7159 4.64016 13.085V14.9684C4.64016 15.3375 4.64016 15.5221 4.56832 15.6631C4.50514 15.7871 4.40432 15.8879 4.28031 15.9511C4.13933 16.0229 3.95478 16.0229 3.58568 16.0229H3.21463C2.84553 16.0229 2.66098 16.0229 2.52 15.9511C2.39599 15.8879 2.29517 15.7871 2.23199 15.6631C2.16016 15.5221 2.16016 15.3375 2.16016 14.9684V13.085Z" fill="white"/><rect id="type_container" x="0.799805" y="3.80005" width="2" height="2" fill="white"/></g></svg>