<svg width="24" height="20" viewBox="0 0 24 20" fill="none" xmlns="http://www.w3.org/2000/svg"><g id="stat_sys_signal_single_ios"><path id="signal_4" fill-rule="evenodd" clip-rule="evenodd" d="M21.5999 5.03307C21.5999 4.40002 21.1223 3.88684 20.5332 3.88684H19.4666C18.8775 3.88684 18.3999 4.40002 18.3999 5.03307V14.967C18.3999 15.6001 18.8775 16.1133 19.4666 16.1133H20.5332C21.1223 16.1133 21.5999 15.6001 21.5999 14.967V5.03307Z" fill="white"/><path id="signal_3" fill-rule="evenodd" clip-rule="evenodd" d="M14.1658 6.33215H15.2325C15.8216 6.33215 16.2991 6.85765 16.2991 7.50589V14.9395C16.2991 15.5878 15.8216 16.1133 15.2325 16.1133H14.1658C13.5767 16.1133 13.0991 15.5878 13.0991 14.9395V7.50589C13.0991 6.85765 13.5767 6.33215 14.1658 6.33215Z" fill="white"/><path id="signal_2" fill-rule="evenodd" clip-rule="evenodd" d="M9.83402 8.9812H8.76735C8.17825 8.9812 7.70068 9.51339 7.70068 10.1699V14.9246C7.70068 15.5811 8.17825 16.1133 8.76735 16.1133H9.83402C10.4231 16.1133 10.9007 15.5811 10.9007 14.9246V10.1699C10.9007 9.51339 10.4231 8.9812 9.83402 8.9812Z" fill="white"/><path id="signal_1" fill-rule="evenodd" clip-rule="evenodd" d="M4.53324 11.4265H3.46657C2.87747 11.4265 2.3999 11.9511 2.3999 12.5982V14.9416C2.3999 15.5887 2.87747 16.1133 3.46657 16.1133H4.53324C5.12234 16.1133 5.5999 15.5887 5.5999 14.9416V12.5982C5.5999 11.9511 5.12234 11.4265 4.53324 11.4265Z" fill="white"/></g></svg>