<svg width="24" height="20" viewBox="0 0 24 20" fill="none" xmlns="http://www.w3.org/2000/svg"><g id="stat_sys_signal_stacked_ios"><path id="signal_2_4" d="M18.4131 14.7727C18.4131 14.2878 18.4131 14.0453 18.4869 13.8522C18.6006 13.5547 18.8357 13.3196 19.1332 13.2059C19.3263 13.1321 19.5688 13.1321 20.0537 13.1321C20.5386 13.1321 20.781 13.1321 20.9742 13.2059C21.2717 13.3196 21.5068 13.5547 21.6205 13.8522C21.6943 14.0453 21.6943 14.2878 21.6943 14.7727V15.071C21.6943 15.5559 21.6943 15.7983 21.6205 15.9915C21.5068 16.289 21.2717 16.5241 20.9742 16.6378C20.781 16.7116 20.5386 16.7116 20.0537 16.7116C19.5688 16.7116 19.3263 16.7116 19.1332 16.6378C18.8357 16.5241 18.6006 16.289 18.4869 15.9915C18.4131 15.7983 18.4131 15.5559 18.4131 15.071V14.7727Z" fill="white"/><path id="signal_2_3" d="M13.0439 14.7727C13.0439 14.2878 13.0439 14.0453 13.1178 13.8522C13.2315 13.5547 13.4665 13.3196 13.7641 13.2059C13.9572 13.1321 14.1997 13.1321 14.6846 13.1321C15.1695 13.1321 15.4119 13.1321 15.605 13.2059C15.9026 13.3196 16.1376 13.5547 16.2514 13.8522C16.3252 14.0453 16.3252 14.2878 16.3252 14.7727V15.071C16.3252 15.5559 16.3252 15.7983 16.2514 15.9915C16.1376 16.289 15.9026 16.5241 15.605 16.6378C15.4119 16.7116 15.1695 16.7116 14.6846 16.7116C14.1997 16.7116 13.9572 16.7116 13.7641 16.6378C13.4665 16.5241 13.2315 16.289 13.1178 15.9915C13.0439 15.7983 13.0439 15.5559 13.0439 15.071V14.7727Z" fill="white"/><path id="signal_2_2" d="M7.6748 14.7727C7.6748 14.2878 7.6748 14.0453 7.74862 13.8522C7.86234 13.5547 8.09739 13.3196 8.39494 13.2059C8.58806 13.1321 8.83051 13.1321 9.31541 13.1321C9.80032 13.1321 10.0428 13.1321 10.2359 13.2059C10.5334 13.3196 10.7685 13.5547 10.8822 13.8522C10.956 14.0453 10.956 14.2878 10.956 14.7727V15.071C10.956 15.5559 10.956 15.7983 10.8822 15.9915C10.7685 16.289 10.5334 16.5241 10.2359 16.6378C10.0428 16.7116 9.80032 16.7116 9.31541 16.7116C8.83051 16.7116 8.58806 16.7116 8.39494 16.6378C8.09739 16.5241 7.86234 16.289 7.74862 15.9915C7.6748 15.7983 7.6748 15.5559 7.6748 15.071V14.7727Z" fill="white"/><path id="signal_2_1" d="M2.30566 14.7727C2.30566 14.2878 2.30566 14.0453 2.37948 13.8522C2.4932 13.5547 2.72825 13.3196 3.0258 13.2059C3.21892 13.1321 3.46137 13.1321 3.94627 13.1321C4.43118 13.1321 4.67363 13.1321 4.86675 13.2059C5.1643 13.3196 5.39934 13.5547 5.51307 13.8522C5.58688 14.0453 5.58688 14.2878 5.58688 14.7727V15.071C5.58688 15.5559 5.58688 15.7983 5.51307 15.9915C5.39934 16.289 5.1643 16.5241 4.86675 16.6378C4.67363 16.7116 4.43118 16.7116 3.94627 16.7116C3.46137 16.7116 3.21892 16.7116 3.0258 16.6378C2.72825 16.5241 2.4932 16.289 2.37948 15.9915C2.30566 15.7983 2.30566 15.5559 2.30566 15.071V14.7727Z" fill="white"/><path id="signal_1_4" d="M18.4131 4.92906C18.4131 4.44416 18.4131 4.20171 18.4869 4.00859C18.6006 3.71104 18.8357 3.47599 19.1332 3.36226C19.3263 3.28845 19.5688 3.28845 20.0537 3.28845C20.5386 3.28845 20.781 3.28845 20.9742 3.36226C21.2717 3.47599 21.5068 3.71104 21.6205 4.00859C21.6943 4.20171 21.6943 4.44416 21.6943 4.92906V9.70175C21.6943 10.1866 21.6943 10.4291 21.6205 10.6222C21.5068 10.9198 21.2717 11.1548 20.9742 11.2685C20.781 11.3424 20.5386 11.3424 20.0537 11.3424C19.5688 11.3424 19.3263 11.3424 19.1332 11.2685C18.8357 11.1548 18.6006 10.9198 18.4869 10.6222C18.4131 10.4291 18.4131 10.1866 18.4131 9.70175V4.92906Z" fill="white"/><path id="signal_1_3" d="M13.0439 6.42052C13.0439 5.93561 13.0439 5.69316 13.1178 5.50004C13.2315 5.20249 13.4665 4.96745 13.7641 4.85372C13.9572 4.77991 14.1997 4.77991 14.6846 4.77991C15.1695 4.77991 15.4119 4.77991 15.605 4.85372C15.9026 4.96745 16.1376 5.20249 16.2514 5.50004C16.3252 5.69316 16.3252 5.93561 16.3252 6.42052V9.70174C16.3252 10.1866 16.3252 10.4291 16.2514 10.6222C16.1376 10.9198 15.9026 11.1548 15.605 11.2685C15.4119 11.3423 15.1695 11.3423 14.6846 11.3423C14.1997 11.3423 13.9572 11.3423 13.7641 11.2685C13.4665 11.1548 13.2315 10.9198 13.1178 10.6222C13.0439 10.4291 13.0439 10.1866 13.0439 9.70174V6.42052Z" fill="white"/><path id="signal_1_2" d="M7.6748 7.91197C7.6748 7.42707 7.6748 7.18462 7.74862 6.9915C7.86234 6.69395 8.09739 6.4589 8.39494 6.34517C8.58806 6.27136 8.83051 6.27136 9.31541 6.27136C9.80032 6.27136 10.0428 6.27136 10.2359 6.34517C10.5334 6.4589 10.7685 6.69395 10.8822 6.9915C10.956 7.18462 10.956 7.42707 10.956 7.91197V9.70173C10.956 10.1866 10.956 10.4291 10.8822 10.6222C10.7685 10.9198 10.5334 11.1548 10.2359 11.2685C10.0428 11.3423 9.80032 11.3423 9.31541 11.3423C8.83051 11.3423 8.58806 11.3423 8.39494 11.2685C8.09739 11.1548 7.86234 10.9198 7.74862 10.6222C7.6748 10.4291 7.6748 10.1866 7.6748 9.70173V7.91197Z" fill="white"/><path id="signal_1_1" d="M2.30566 9.10509C2.30566 8.62018 2.30566 8.37773 2.37948 8.18461C2.4932 7.88706 2.72825 7.65202 3.0258 7.53829C3.21892 7.46448 3.46137 7.46448 3.94627 7.46448C4.43118 7.46448 4.67363 7.46448 4.86675 7.53829C5.1643 7.65202 5.39934 7.88706 5.51307 8.18461C5.58688 8.37773 5.58688 8.62018 5.58688 9.10509V9.70167C5.58688 10.1866 5.58688 10.429 5.51307 10.6221C5.39934 10.9197 5.1643 11.1547 4.86675 11.2685C4.67363 11.3423 4.43118 11.3423 3.94627 11.3423C3.46137 11.3423 3.21892 11.3423 3.0258 11.2685C2.72825 11.1547 2.4932 10.9197 2.37948 10.6221C2.30566 10.429 2.30566 10.1866 2.30566 9.70167V9.10509Z" fill="white"/></g></svg>